<?xml version="1.0" encoding="UTF-8" standalone="no"?>
<svg
   width="179.03999pt"
   height="173.03999pt"
   viewBox="0 0 179.03999 173.03999"
   version="1.1"
   id="svg22"
   xmlns="http://www.w3.org/2000/svg"
   xmlns:svg="http://www.w3.org/2000/svg">
  <defs
     id="defs8">
    <clipPath
       id="clip-0">
      <path
         clip-rule="nonzero"
         d="M 0 0 L 179 0 L 179 170.761719 L 0 170.761719 Z M 0 0 "
         id="path2" />
    </clipPath>
    <clipPath
       id="clip-1">
      <path
         clip-rule="nonzero"
         d="M 0 0 L 179 0 L 179 113 L 0 113 Z M 0 0 "
         id="path5" />
    </clipPath>
  </defs>
  <path
     fill-rule="nonzero"
     fill="rgb(98.039246%, 85.099792%, 83.529663%)"
     fill-opacity="1"
     d="M 12.457031 168.328125 L 12.457031 70.191406 L 89.125 11.308594 L 165.804688 70.191406 L 165.804688 168.328125 L 111.03125 168.328125 L 111.03125 119.261719 L 67.21875 119.261719 L 67.21875 168.328125 Z M 12.457031 168.328125 "
     id="path10" />
  <g
     clip-path="url(#clip-0)"
     id="g14">
    <path
       fill="none"
       stroke-width="4"
       stroke-linecap="butt"
       stroke-linejoin="miter"
       stroke="#ae4132"
       stroke-opacity="1"
       stroke-miterlimit="10"
       d="M 16.632573,224.75097 V 93.719258 L 118.99931,15.099185 221.38169,93.719258 V 224.75097 H 148.24844 V 159.23772 H 89.75018 v 65.51325 z m 0,0"
       transform="scale(0.748954)"
       id="path12" />
  </g>
  <path
     fill-rule="nonzero"
     fill="rgb(98.039246%, 85.099792%, 83.529663%)"
     fill-opacity="1"
     stroke-width="4"
     stroke-linecap="butt"
     stroke-linejoin="miter"
     stroke="rgb(68.238831%, 25.489807%, 19.60907%)"
     stroke-opacity="1"
     stroke-miterlimit="10"
     d="M 42.950531 62.269142 L 42.950531 28.211223 L 60.501051 28.211223 L 60.501051 49.167535 "
     transform="matrix(0.748954, 0, 0, 0.748954, 0, 0)"
     id="path16" />
  <g
     clip-path="url(#clip-1)"
     id="g20">
    <path
       fill="none"
       stroke-width="4"
       stroke-linecap="butt"
       stroke-linejoin="miter"
       stroke="#ae4132"
       stroke-opacity="1"
       stroke-miterlimit="10"
       d="M 1.997578,93.719258 118.99931,1.997578 236.00104,93.719258"
       transform="scale(0.748954)"
       id="path18" />
  </g>
</svg>
