<?xml version="1.0" encoding="utf-8"?>
<!-- Generator: Adobe Illustrator 25.3.1, SVG Export Plug-In . SVG Version: 6.00 Build 0)  -->
<svg version="1.1" id="Calque_1" xmlns="http://www.w3.org/2000/svg" xmlns:xlink="http://www.w3.org/1999/xlink" x="0px" y="0px"
	 viewBox="0 0 143 40" style="enable-background:new 0 0 143 40;" xml:space="preserve">
<style type="text/css">
	.st0{fill:#FFFFFF;}
	.st1{fill:#008D36;}
	.st2{fill:#F39200;}
</style>
<g>
	<path class="st0" d="M30.1,20.5c0,3.8,0,7.6,0,11.3c-7.1,0-14.1,0-21.2,0c0-6.7,0-13.3,0-20c7.1,0,14.1,0,21.2,0c0,2.7,0,5.4,0,8.1
		c0-0.3,0-0.6-0.1-0.9c-0.1-0.7-0.2-1.3-0.2-2c-0.1-0.6-0.1-1.2-0.6-1.7c-0.8-1-1.6-1.9-2.5-2.9c-0.3-0.4-0.7-0.6-1.2-0.6
		c-0.9,0-1.7,0-2.6,0c-0.4,0-0.8,0.3-0.9,0.7c-0.1,0.2,0,0.5,0,0.7c-0.1,0-0.2,0-0.3,0c-3.7,0-7.3,0-11,0c-0.4,0-0.5,0.1-0.5,0.5
		c0,3.1,0,6.1,0,9.2c0,0.1,0,0.2,0,0.3C9.7,24.7,9.1,26,9,27.5c-0.1,1.6,0.7,3.3,2.2,4c0.8,0.4,1.6,0.4,2.5,0.3
		c0.1,0,0.1-0.1,0.2-0.1c0,0,0-0.1,0-0.1c-0.1,0-0.2,0-0.2,0c-1.3,0.2-2.5-0.1-3.4-1.1c-0.3-0.3-0.5-0.7-0.6-1.1
		c0.1,0.1,0.1,0.1,0.2,0.2c1.2,1.8,3.7,2.2,5.4,0.9c0.5-0.4,1-0.8,1.5-1.1c0.7-0.5,1.4-1.1,2.1-1.6c0.5-0.4,0.6-1,0.2-1.5
		c-0.3-0.5-1-0.6-1.5-0.2c-0.2,0.1-0.4,0.3-0.6,0.4c-0.1,0.1-0.3,0.2-0.5,0.3c0.1-0.4,0.3-0.7,0.3-1c0.1-0.2,0.2-0.3,0.4-0.3
		c3,0,5.9,0,8.9,0c0.4,0,0.5-0.1,0.5-0.5c0-0.6,0-1.2,0-1.7c0-0.1,0-0.2,0-0.3c0.1,0,0.2,0,0.3,0.1c1.1,0.3,2.3-0.2,2.9-1.3
		C29.9,21.2,30,20.8,30.1,20.5z"/>
	<path class="st1" d="M30.1,20.5c-0.1,0.4-0.2,0.7-0.4,1.1c-0.6,1-1.7,1.5-2.9,1.3c-0.1,0-0.2,0-0.3-0.1c0,0.1,0,0.2,0,0.3
		c0,0.6,0,1.2,0,1.7c0,0.4-0.1,0.5-0.5,0.5c-3,0-5.9,0-8.9,0c-0.2,0-0.4,0.1-0.4,0.3c-0.1,0.3-0.2,0.6-0.3,1
		c0.2-0.1,0.3-0.2,0.5-0.3c0.2-0.1,0.4-0.3,0.6-0.4c0.5-0.3,1.1-0.2,1.5,0.2c0.3,0.5,0.3,1.1-0.2,1.5c-0.7,0.5-1.4,1.1-2.1,1.6
		c-0.5,0.4-1,0.8-1.5,1.1c-1.7,1.3-4.2,0.9-5.4-0.9c-0.1-0.1-0.1-0.1-0.2-0.2c0.1,0.4,0.3,0.8,0.6,1.1c0.9,1,2.1,1.3,3.4,1.1
		c0.1,0,0.2,0,0.2,0c0,0,0.1,0.1,0,0.1c0,0.1-0.1,0.1-0.2,0.1c-0.8,0.2-1.7,0.1-2.5-0.3c-1.6-0.7-2.3-2.4-2.2-4
		c0.1-1.5,0.7-2.8,1.2-4.2c0-0.1,0-0.2,0-0.3c0-3.1,0-6.1,0-9.2c0-0.4,0.1-0.5,0.5-0.5c3.7,0,7.3,0,11,0c0.1,0,0.2,0,0.3,0
		c0-0.3,0-0.5,0-0.7c0.1-0.4,0.4-0.7,0.9-0.7c0.9,0,1.7,0,2.6,0c0.5,0,0.9,0.2,1.2,0.6c0.8,1,1.6,1.9,2.5,2.9
		c0.4,0.5,0.5,1.1,0.6,1.7c0.1,0.7,0.2,1.3,0.2,2c0,0.3,0,0.6,0.1,0.9C30.1,20.1,30.1,20.3,30.1,20.5z M17.2,24.6c0.1,0,0.2,0,0.2,0
		c2.8,0,5.6,0,8.4,0c0.2,0,0.2-0.1,0.2-0.3c0-1.5,0-3.1,0-4.6c0-0.4,0-0.8-0.2-1.2c0-0.1,0-0.1,0-0.2c0-0.5,0-1.1,0-1.6
		c0-0.4-0.1-0.9-0.3-1.2c-0.3-0.5-0.6-1-0.9-1.5c-0.1-0.2-0.2-0.2-0.4-0.2c-4.3,0-8.6,0-13,0c-0.1,0-0.2,0-0.3,0c0,3,0,5.9,0,8.9
		c0.5,0,0.6,0,1.1,0.4c0.3-0.2,0.5-0.4,0.9-0.3c0.3,0,0.6,0.2,0.8,0.5c0.6-0.4,1.1-0.4,1.6,0.1c0.2-0.7,0.5-1.3,0.7-2
		c0.1-0.3,0.3-0.5,0.5-0.7c0.4-0.2,0.8-0.2,1.2,0.1c0.4,0.3,0.5,0.7,0.3,1.2c-0.2,0.6-0.4,1.1-0.6,1.7C17.4,24,17.3,24.3,17.2,24.6z
		 M13.2,30.5c0.5,0,1.2-0.2,1.7-0.7c0.9-0.7,1.8-1.4,2.7-2.1c0.3-0.2,0.5-0.4,0.8-0.6c0.2-0.1,0.3-0.3,0.2-0.5
		c-0.1-0.1-0.2-0.3-0.3-0.3c-0.1,0-0.3,0-0.4,0.1c-0.4,0.3-0.8,0.6-1.2,0.8c-0.1,0.1-0.3,0.1-0.4,0.1c-0.3,0-0.5-0.3-0.3-0.7
		c0.3-0.9,0.6-1.8,1-2.7c0.2-0.7,0.5-1.4,0.7-2c0.1-0.2,0-0.4-0.2-0.6c-0.2-0.1-0.4-0.1-0.5,0c-0.1,0.1-0.2,0.2-0.2,0.4
		c-0.3,0.9-0.6,1.8-1,2.7c0,0.1-0.1,0.2-0.1,0.3c-0.1,0.1-0.3,0.2-0.4,0.1c-0.1-0.1-0.2-0.2-0.2-0.3c0-0.1,0-0.2,0-0.2
		c0-0.2,0-0.4-0.2-0.5c-0.3-0.1-0.5,0-0.6,0.3c-0.1,0.2-0.2,0.3-0.4,0.3c-0.2,0-0.3-0.2-0.3-0.4c0-0.2-0.1-0.3-0.3-0.4
		c-0.2-0.1-0.4,0-0.6,0.3c-0.1,0.2-0.2,0.3-0.4,0.3c-0.1,0-0.3-0.2-0.4-0.3c-0.1-0.2-0.2-0.4-0.5-0.3c-0.3,0-0.4,0.2-0.4,0.4
		c-0.3,0.8-0.6,1.6-0.8,2.4C9.1,28.3,10.7,30.5,13.2,30.5z M26.6,19.7c0,0.6,0,1.1,0,1.7c0,0.2,0.1,0.2,0.2,0.3
		c1.4,0.4,2.8-0.8,2.7-2.3c-0.1-0.9-0.2-1.7-0.3-2.6c0-0.4-0.2-0.7-0.4-1c-0.8-1-1.6-1.9-2.4-2.9c-0.2-0.2-0.5-0.4-0.8-0.4
		c-0.8,0-1.7,0-2.5,0c-0.3,0-0.5,0.4-0.3,0.6c0.1,0.1,0.3,0.2,0.4,0.2c0.4,0,0.7,0,1.1,0c0.1,0,0.2-0.1,0.2-0.1
		c0.4-0.5,1.1-0.5,1.5,0c0.8,0.9,1.6,1.9,2.3,2.8c0,0,0.1,0.1,0.1,0.2c0,0.1,0,0.3-0.1,0.4c-0.1,0.1-0.3,0-0.4,0
		c-0.1,0-0.2-0.2-0.2-0.3c-0.7-0.9-1.4-1.8-2.2-2.6c-0.2-0.2-0.3-0.3-0.5-0.2c-0.2,0.1-0.2,0.3,0,0.5c0.3,0.5,0.6,0.9,0.8,1.4
		c0.2,0.3,0.4,0.7,0.4,1.1c0,0.5,0,1,0,1.5c0,0.5,0.2,0.9,0.6,1.2c0.2,0.2,0.4,0.3,0.6,0.5c0.2,0.2,0.2,0.3,0.1,0.5
		c-0.1,0.2-0.3,0.2-0.5,0C27,20,26.8,19.8,26.6,19.7z M29.6,21.1c-0.8,1-1.8,1.3-3,1.1c0,0.2,0,0.2,0.1,0.3c0.3,0,0.6,0.1,0.9,0.1
		C28.5,22.5,29.3,21.9,29.6,21.1z"/>
	<path class="st0" d="M17.2,24.6c0.1-0.3,0.2-0.6,0.3-0.9c0.2-0.6,0.4-1.1,0.6-1.7c0.2-0.5,0-0.9-0.3-1.2c-0.4-0.3-0.8-0.3-1.2-0.1
		c-0.3,0.1-0.4,0.4-0.5,0.7c-0.2,0.7-0.5,1.3-0.7,2c-0.5-0.5-1-0.5-1.6-0.1c-0.2-0.3-0.5-0.4-0.8-0.5c-0.4,0-0.6,0.1-0.9,0.3
		c-0.5-0.4-0.6-0.5-1.1-0.4c0-3,0-5.9,0-8.9c0.1,0,0.2,0,0.3,0c4.3,0,8.6,0,13,0c0.2,0,0.3,0.1,0.4,0.2c0.3,0.5,0.6,1,0.9,1.5
		c0.2,0.4,0.3,0.8,0.3,1.2c0,0.5,0,1.1,0,1.6c0,0.1,0,0.1,0,0.2C26,19,26,19.4,26,19.8c0,1.5,0,3.1,0,4.6c0,0.2,0,0.3-0.2,0.3
		c-2.8,0-5.6,0-8.4,0C17.3,24.6,17.2,24.6,17.2,24.6z M11.9,14.9c4,0,7.9,0,11.9,0c0,2.9,0,5.9,0,8.8c-0.1,0-0.2,0-0.3,0
		c-1.7,0-3.3,0-5,0c-0.1,0-0.2,0-0.2,0c-0.1,0-0.1,0.1-0.2,0.1c0.1,0,0.1,0.1,0.2,0.1c0,0,0.1,0,0.1,0c1.8,0,3.6,0,5.4,0
		c0.3,0,0.3,0,0.3-0.3c0-2.9,0-5.8,0-8.7c0-0.3,0-0.3-0.3-0.3c-4,0-7.9,0-11.9,0c-0.3,0-0.3,0-0.3,0.3c0,2.3,0,4.7,0,7
		c0,0.1,0,0.1,0,0.2c0,0.1,0.1,0.1,0.1,0.1c0,0,0.1-0.1,0.1-0.1c0-0.1,0-0.1,0-0.2c0-2.2,0-4.5,0-6.7C11.9,15.1,11.9,15,11.9,14.9z
		 M15.4,21.7c0-0.7,0.4-1.4,1.1-1.6c0.7-0.3,1.5-0.1,1.9,0.5c0.4,0.5,0.4,1.4,0,1.9c0,0.1-0.1,0.1-0.1,0.2c0,0.1,0,0.2,0,0.2
		c0,0,0.1,0,0.2,0c0.1-0.1,0.2-0.2,0.2-0.3c0.5-0.9,0.2-2.1-0.6-2.6c-0.9-0.6-2.1-0.3-2.7,0.5C15.1,21,15,21.5,15.1,22
		c0,0.1,0.1,0.1,0.2,0.2c0-0.1,0.1-0.1,0.1-0.2C15.4,21.9,15.4,21.8,15.4,21.7z M25,19.8c0.3,0,0.6-0.3,0.6-0.6
		c0-0.3-0.2-0.6-0.6-0.6c-0.3,0-0.6,0.2-0.6,0.6C24.5,19.6,24.7,19.8,25,19.8z"/>
	<path class="st0" d="M13.2,30.5c-2.5,0-4.1-2.2-3.4-4.3c0.3-0.8,0.6-1.6,0.8-2.4c0.1-0.2,0.2-0.4,0.4-0.4c0.2,0,0.4,0.1,0.5,0.3
		c0.1,0.1,0.2,0.2,0.4,0.3c0.2,0.1,0.3-0.1,0.4-0.3c0.2-0.3,0.4-0.3,0.6-0.3c0.2,0.1,0.3,0.2,0.3,0.4c0,0.2,0.1,0.4,0.3,0.4
		c0.2,0,0.4-0.1,0.4-0.3c0.2-0.3,0.4-0.4,0.6-0.3c0.2,0.1,0.3,0.3,0.2,0.5c0,0.1-0.1,0.2,0,0.2c0.1,0.1,0.1,0.3,0.2,0.3
		c0.1,0.1,0.3,0,0.4-0.1c0.1-0.1,0.1-0.2,0.1-0.3c0.3-0.9,0.6-1.8,1-2.7c0-0.1,0.1-0.3,0.2-0.4c0.2-0.1,0.3-0.1,0.5,0
		c0.2,0.1,0.2,0.3,0.2,0.6c-0.2,0.7-0.5,1.4-0.7,2c-0.3,0.9-0.6,1.8-1,2.7c-0.1,0.4,0,0.7,0.3,0.7c0.1,0,0.3,0,0.4-0.1
		c0.4-0.3,0.8-0.6,1.2-0.8c0.1-0.1,0.3-0.1,0.4-0.1c0.1,0,0.3,0.2,0.3,0.3c0.1,0.2,0,0.4-0.2,0.5c-0.3,0.2-0.5,0.4-0.8,0.6
		c-0.9,0.7-1.8,1.4-2.7,2.1C14.3,30.2,13.7,30.5,13.2,30.5z"/>
	<path class="st0" d="M26.6,19.7c0.2,0.2,0.4,0.3,0.6,0.4c0.2,0.2,0.4,0.1,0.5,0c0.1-0.2,0.1-0.3-0.1-0.5c-0.2-0.2-0.4-0.3-0.6-0.5
		c-0.4-0.3-0.6-0.7-0.6-1.2c0-0.5,0-1,0-1.5c0-0.4-0.2-0.7-0.4-1.1c-0.3-0.5-0.6-0.9-0.8-1.4c-0.2-0.3-0.2-0.4,0-0.5
		c0.2-0.1,0.3-0.1,0.5,0.2c0.7,0.9,1.4,1.8,2.2,2.6c0.1,0.1,0.1,0.2,0.2,0.3c0.1,0,0.3,0.1,0.4,0c0.1-0.1,0.1-0.2,0.1-0.4
		c0-0.1-0.1-0.1-0.1-0.2c-0.8-0.9-1.6-1.9-2.3-2.8c-0.4-0.5-1.1-0.5-1.5,0c0,0.1-0.1,0.1-0.2,0.1c-0.4,0-0.7,0-1.1,0
		c-0.1,0-0.3-0.1-0.4-0.2c-0.2-0.2,0-0.6,0.3-0.6c0.8,0,1.7,0,2.5,0c0.3,0,0.6,0.1,0.8,0.4c0.8,1,1.6,1.9,2.4,2.9
		c0.2,0.3,0.4,0.6,0.4,1c0.1,0.9,0.2,1.7,0.3,2.6c0.1,1.5-1.3,2.7-2.7,2.3c-0.1,0-0.2-0.1-0.2-0.3C26.6,20.8,26.6,20.3,26.6,19.7z"
		/>
	<path class="st0" d="M29.6,21.1c-0.3,0.8-1.1,1.4-1.9,1.4c-0.3,0-0.6,0-0.9-0.1c-0.2,0-0.2,0-0.1-0.3
		C27.8,22.5,28.8,22.1,29.6,21.1z"/>
	<path class="st2" d="M11.9,14.9c0,0.1,0,0.2,0,0.3c0,2.2,0,4.5,0,6.7c0,0.1,0,0.2,0,0.2c0,0.1-0.1,0.1-0.1,0.1c0,0-0.1-0.1-0.1-0.1
		c0-0.1,0-0.1,0-0.2c0-2.3,0-4.7,0-7c0-0.3,0-0.3,0.3-0.3c4,0,7.9,0,11.9,0c0.3,0,0.3,0,0.3,0.3c0,2.9,0,5.8,0,8.7
		c0,0.3,0,0.3-0.3,0.3c-1.8,0-3.6,0-5.4,0c0,0-0.1,0-0.1,0c-0.1,0-0.1-0.1-0.2-0.1c0.1,0,0.1-0.1,0.2-0.1c0.1,0,0.1,0,0.2,0
		c1.7,0,3.3,0,5,0c0.1,0,0.2,0,0.3,0c0-2.9,0-5.9,0-8.8C19.8,14.9,15.9,14.9,11.9,14.9z"/>
	<path class="st2" d="M15.4,21.7c0,0.1,0,0.2,0,0.2c0,0.1-0.1,0.1-0.1,0.2c-0.1-0.1-0.1-0.1-0.2-0.2c-0.1-0.5,0-1,0.3-1.4
		c0.6-0.9,1.8-1.1,2.7-0.5c0.9,0.5,1.2,1.7,0.6,2.6c-0.1,0.1-0.1,0.2-0.2,0.3c0,0-0.1,0-0.2,0c0,0-0.1-0.1,0-0.2
		c0-0.1,0.1-0.1,0.1-0.2c0.4-0.6,0.4-1.4,0-1.9c-0.5-0.6-1.2-0.8-1.9-0.5C15.8,20.4,15.3,21,15.4,21.7z"/>
	<path class="st2" d="M25,19.8c-0.3,0-0.6-0.3-0.6-0.6c0-0.3,0.3-0.6,0.6-0.6c0.3,0,0.6,0.3,0.6,0.6C25.6,19.6,25.4,19.8,25,19.8z
		 M24.7,19.2c0,0,0,0.1,0,0.1c0.1,0.1,0.2,0.2,0.3,0.2c0.2,0,0.3-0.1,0.3-0.3c0-0.2-0.1-0.3-0.3-0.3C24.9,19,24.8,19.1,24.7,19.2z"
		/>
	<path class="st0" d="M24.7,19.2c0.1-0.1,0.2-0.2,0.3-0.2c0.1,0,0.3,0.1,0.3,0.3c0,0.2-0.1,0.3-0.3,0.3c-0.1,0-0.2-0.1-0.3-0.2
		C24.7,19.3,24.7,19.2,24.7,19.2z"/>
</g>
<g>
	<path class="st0" d="M45.2,28.5c-0.1,0.2-0.1,0.5-0.2,0.9c-0.1,0.3-0.1,0.7-0.2,1.1c-0.1,0-0.1,0-0.2,0s-0.1,0-0.2,0
		c-1.4,0-2.6-0.1-3.7-0.4c-1.1-0.3-2-0.7-2.8-1.2c-0.6-0.4-1-0.9-1.4-1.4c-0.3-0.5-0.5-1.2-0.5-1.9c0-0.7,0.2-1.3,0.5-1.8
		c0.3-0.5,0.8-1,1.3-1.4c0.7-0.5,1.7-0.9,2.8-1.2c1.1-0.3,2.3-0.4,3.6-0.4c0.1,0,0.1,0,0.2,0c0.1,0,0.1,0,0.2,0
		c0,0.2,0.1,0.5,0.1,0.8c0,0.4,0.1,0.7,0.2,1.1c-0.1,0-0.1,0-0.2,0c-0.1,0-0.1,0-0.2,0c-0.5,0-1,0-1.7,0.1c-0.7,0.1-1.2,0.2-1.7,0.4
		c-0.7,0.2-1.2,0.6-1.6,1c-0.4,0.4-0.6,0.8-0.6,1.4c0,0.5,0.2,1,0.6,1.4c0.4,0.4,0.9,0.7,1.6,1c0.5,0.2,1.1,0.3,1.8,0.4
		c0.7,0.1,1.3,0.1,1.7,0.1c0.1,0,0.1,0,0.2,0C45,28.5,45.1,28.5,45.2,28.5z"/>
	<path class="st0" d="M58.1,25.6c0,0.8-0.2,1.4-0.5,2.1c-0.3,0.6-0.8,1.2-1.4,1.6c-0.6,0.4-1.2,0.8-1.9,1c-0.7,0.2-1.4,0.3-2.2,0.3
		c-0.8,0-1.5-0.1-2.2-0.3c-0.7-0.2-1.3-0.5-1.8-0.9c-0.6-0.5-1.1-1-1.4-1.6c-0.3-0.6-0.5-1.4-0.5-2.1c0-0.7,0.1-1.4,0.4-2
		C47,23,47.4,22.5,48,22c0.5-0.4,1.1-0.8,1.9-1c0.7-0.2,1.5-0.4,2.3-0.4c0.8,0,1.6,0.1,2.3,0.3c0.7,0.2,1.3,0.5,1.8,1
		c0.6,0.5,1,1,1.3,1.7C57.9,24.2,58.1,24.9,58.1,25.6z M55.2,25.7c0-0.5-0.1-0.9-0.3-1.4c-0.2-0.5-0.5-0.9-0.9-1.2
		c-0.2-0.2-0.5-0.4-0.8-0.5c-0.3-0.1-0.7-0.2-1.1-0.2c-0.4,0-0.7,0.1-1.1,0.2c-0.3,0.1-0.6,0.3-0.9,0.5c-0.3,0.3-0.6,0.7-0.8,1.1
		c-0.2,0.4-0.3,0.9-0.3,1.4c0,0.5,0.1,1,0.3,1.4c0.2,0.4,0.5,0.8,0.8,1.1c0.2,0.2,0.5,0.4,0.9,0.5c0.3,0.1,0.7,0.2,1.1,0.2
		c0.4,0,0.7-0.1,1-0.2c0.3-0.1,0.6-0.3,0.9-0.5c0.3-0.3,0.6-0.6,0.8-1C55.1,26.6,55.2,26.2,55.2,25.7z"/>
	<path class="st0" d="M68.3,30.3c-0.2,0-0.8,0-1.6,0c-0.9,0-1.7,0-2.6,0c-0.7,0-1.3,0-1.9,0c-0.6,0-1.2,0-1.8,0c0-0.8,0-1.6,0-2.6
		c0-0.9,0-1.7,0-2.4c0-1.2,0-2.2,0-3c0-0.7,0-1.2,0-1.5h2.8c0,0.6,0,1.2,0,1.9c0,0.7,0,1.4,0,2c0,0.9,0,1.7,0,2.4c0,0.7,0,1.1,0,1.2
		c0.3,0,0.5,0,0.9,0c0.3,0,0.6,0,0.9,0c0.7,0,1.5,0,2.2,0c0.7,0,1.1,0,1.3,0V30.3z"/>
	<path class="st0" d="M78,30.3c-0.2,0-0.8,0-1.6,0c-0.9,0-1.7,0-2.6,0c-0.7,0-1.3,0-1.9,0c-0.6,0-1.2,0-1.8,0c0-0.8,0-1.6,0-2.6
		c0-0.9,0-1.7,0-2.4c0-1.2,0-2.2,0-3s0-1.2,0-1.5h2.8c0,0.6,0,1.2,0,1.9c0,0.7,0,1.4,0,2c0,0.9,0,1.7,0,2.4c0,0.7,0,1.1,0,1.2
		c0.3,0,0.5,0,0.9,0c0.3,0,0.6,0,0.9,0c0.7,0,1.5,0,2.2,0c0.7,0,1.1,0,1.3,0V30.3z"/>
	<path class="st0" d="M88,30.3c-0.2,0-0.8,0-1.7,0c-0.9,0-1.8,0-2.7,0c-0.8,0-1.5,0-2.3,0c-0.7,0-1.3,0-1.6,0c0-0.2,0-0.8,0-1.6
		c0-0.8,0-1.9,0-3.2c0-0.5,0-1.2,0-2.1s0-1.7,0-2.6c0.4,0,0.9,0,1.6,0c0.7,0,1.4,0,2.1,0c1,0,1.9,0,2.8,0c0.9,0,1.4,0,1.6,0v1.7
		c-0.1,0-0.5,0-1.1,0c-0.6,0-1.3,0-1.9,0c-0.4,0-0.8,0-1.3,0c-0.5,0-0.9,0-1.2,0c0,0.4,0,0.7,0,1.1c0,0.4,0,0.7,0,1.1
		c0.3,0,0.7,0,1.1,0c0.4,0,0.8,0,1.1,0c0.7,0,1.4,0,2,0c0.6,0,1,0,1.2,0v1.4c-0.1,0-0.5,0-1.3,0c-0.8,0-1.4,0-1.9,0
		c-0.3,0-0.7,0-1.1,0c-0.5,0-0.8,0-1.1,0c0,0.5,0,1,0,1.4c0,0.4,0,0.7,0,1c0.3,0,0.8,0,1.3,0c0.6,0,1.1,0,1.5,0c0.6,0,1.2,0,1.7,0
		c0.5,0,0.9,0,1,0V30.3z"/>
	<path class="st0" d="M98.8,28.5c-0.1,0.2-0.1,0.5-0.2,0.9c-0.1,0.3-0.1,0.7-0.2,1.1c-0.1,0-0.1,0-0.2,0s-0.1,0-0.2,0
		c-1.4,0-2.6-0.1-3.7-0.4c-1.1-0.3-2-0.7-2.8-1.2c-0.6-0.4-1-0.9-1.4-1.4c-0.3-0.5-0.5-1.2-0.5-1.9c0-0.7,0.2-1.3,0.5-1.8
		c0.3-0.5,0.8-1,1.3-1.4c0.7-0.5,1.7-0.9,2.8-1.2c1.1-0.3,2.3-0.4,3.6-0.4c0.1,0,0.1,0,0.2,0s0.1,0,0.2,0c0,0.2,0.1,0.5,0.1,0.8
		c0,0.4,0.1,0.7,0.2,1.1c-0.1,0-0.1,0-0.2,0s-0.1,0-0.2,0c-0.5,0-1,0-1.7,0.1c-0.7,0.1-1.2,0.2-1.7,0.4c-0.7,0.2-1.2,0.6-1.6,1
		s-0.6,0.8-0.6,1.4c0,0.5,0.2,1,0.6,1.4c0.4,0.4,0.9,0.7,1.6,1c0.5,0.2,1.1,0.3,1.8,0.4s1.3,0.1,1.7,0.1c0.1,0,0.1,0,0.2,0
		S98.8,28.5,98.8,28.5z"/>
	<path class="st0" d="M109.3,22.8c-0.2,0-0.7,0-1.3,0c-0.7,0-1.4,0-2.4,0c0,0.7,0,1.3,0,1.8c0,0.4,0,1,0,1.7c0,0.8,0,1.6,0,2.3
		c0,0.7,0,1.3,0,1.7h-2.8c0-0.4,0-0.9,0-1.6c0-0.7,0-1.5,0-2.4c0-0.6,0-1.2,0-1.7c0-0.5,0-1.1,0-1.8c-0.9,0-1.7,0-2.4,0
		c-0.7,0-1.1,0-1.3,0v-1.9c0.4,0,1.1,0,2.1,0c1,0,2,0,2.9,0c1.1,0,2.2,0,3.2,0c1,0,1.7,0,1.9,0V22.8z"/>
	<path class="st0" d="M121.8,25.6c0,0.8-0.2,1.4-0.5,2.1c-0.3,0.6-0.8,1.2-1.4,1.6c-0.6,0.4-1.2,0.8-1.9,1c-0.7,0.2-1.4,0.3-2.2,0.3
		c-0.8,0-1.5-0.1-2.2-0.3c-0.7-0.2-1.3-0.5-1.8-0.9c-0.6-0.5-1.1-1-1.4-1.6c-0.3-0.6-0.5-1.4-0.5-2.1c0-0.7,0.1-1.4,0.4-2
		s0.7-1.1,1.3-1.6c0.5-0.4,1.1-0.8,1.9-1c0.7-0.2,1.5-0.4,2.3-0.4c0.8,0,1.6,0.1,2.3,0.3c0.7,0.2,1.3,0.5,1.8,1c0.6,0.5,1,1,1.3,1.7
		C121.6,24.2,121.8,24.9,121.8,25.6z M118.9,25.7c0-0.5-0.1-0.9-0.3-1.4s-0.5-0.9-0.9-1.2c-0.2-0.2-0.5-0.4-0.8-0.5
		c-0.3-0.1-0.7-0.2-1.1-0.2c-0.4,0-0.7,0.1-1.1,0.2c-0.3,0.1-0.6,0.3-0.9,0.5c-0.3,0.3-0.6,0.7-0.8,1.1c-0.2,0.4-0.3,0.9-0.3,1.4
		c0,0.5,0.1,1,0.3,1.4c0.2,0.4,0.5,0.8,0.8,1.1c0.2,0.2,0.5,0.4,0.9,0.5c0.3,0.1,0.7,0.2,1.1,0.2c0.4,0,0.7-0.1,1-0.2
		c0.3-0.1,0.6-0.3,0.9-0.5c0.3-0.3,0.6-0.6,0.8-1C118.8,26.6,118.9,26.2,118.9,25.7z"/>
	<path class="st0" d="M134.2,29.7l-2.5,0.8c-0.2-0.3-0.6-0.7-1.2-1.4c-0.6-0.7-1.5-1.7-2.8-3l0-0.1c0.2,0,0.4-0.1,0.7-0.2
		c0.3-0.1,0.6-0.3,0.8-0.4c0.2-0.2,0.4-0.4,0.5-0.5c0.1-0.2,0.2-0.4,0.2-0.7c0-0.3-0.1-0.5-0.3-0.8s-0.4-0.4-0.7-0.5
		c-0.3-0.1-0.5-0.1-0.8-0.2s-0.5,0-0.8,0c-0.2,0-0.3,0-0.3,0s-0.1,0-0.2,0c0,0.6,0,1.1,0,1.7s0,1.1,0,1.6c0,0.8,0,1.6,0,2.5
		c0,0.9,0,1.6,0,2H124c0-0.4,0-0.9,0-1.6c0-0.7,0-1.8,0-3.2c0-0.4,0-0.9,0-1.6c0-0.7,0-1.7,0-3c0.2,0,0.5,0,1,0c0.5,0,1,0,1.4,0
		c0.8,0,1.5,0,2.2,0.1s1.2,0.1,1.7,0.3c0.8,0.2,1.3,0.5,1.7,1c0.4,0.4,0.6,0.9,0.6,1.4c0,0.6-0.2,1.1-0.6,1.5
		c-0.4,0.4-0.8,0.7-1.2,1v0c0.6,0.6,1.2,1.2,1.8,1.9C133.3,28.7,133.8,29.2,134.2,29.7z"/>
</g>
<g>
	<g>
		<path class="st0" d="M37.6,17.1c0.3,0.2,0.8,0.4,1.3,0.4c0.7,0,1.1-0.4,1.1-1c0-0.5-0.2-0.8-0.8-1.1c-0.7-0.4-1.1-0.9-1.1-1.5
			c0-1.1,0.9-1.9,2.2-1.9c0.5,0,1,0.1,1.3,0.3L41.2,13c-0.2-0.1-0.6-0.3-1-0.3c-0.6,0-1.1,0.4-1.1,0.9c0,0.4,0.3,0.7,0.8,1
			c0.7,0.4,1.1,0.9,1.1,1.6c0,1.3-1,2-2.3,2c-0.6,0-1.2-0.2-1.5-0.4L37.6,17.1z"/>
		<path class="st0" d="M42.2,18.1l0.8-4.3c0.1-0.7,0.2-1.3,0.3-1.8h0.9L44,13.2h0c0.6-0.8,1.3-1.3,2.1-1.3c0.9,0,1.4,0.6,1.4,1.3
			c0.5-0.9,1.3-1.3,2.2-1.3c0.7,0,1.5,0.4,1.5,1.6c0,0.3,0,0.7-0.1,1l-0.7,3.6h-1l0.6-3.5c0-0.2,0.1-0.5,0.1-0.8c0-0.6-0.2-1-0.9-1
			c-0.8,0-1.6,0.9-1.9,2.2l-0.6,3.1h-1l0.7-3.5c0.1-0.3,0.1-0.5,0.1-0.7c0-0.5-0.1-1-0.9-1c-0.7,0-1.7,1-1.9,2.3l-0.6,3H42.2z"/>
		<path class="st0" d="M56.2,18.1c0-0.4,0.1-0.9,0.1-1.6h0c-0.7,1.3-1.5,1.7-2.3,1.7c-1.1,0-1.7-0.8-1.7-2c0-2.1,1.5-4.3,4.2-4.3
			c0.6,0,1.2,0.1,1.6,0.2l-0.6,3.1c-0.2,1-0.3,2.1-0.3,2.8H56.2z M56.9,12.9c-0.1,0-0.4-0.1-0.7-0.1c-1.6,0-2.8,1.6-2.8,3.3
			c0,0.7,0.2,1.3,1,1.3c0.9,0,1.9-1.1,2.2-2.7L56.9,12.9z"/>
		<path class="st0" d="M58.7,18.1l0.7-3.9c0.1-0.8,0.2-1.6,0.3-2.1h0.9c0,0.4-0.1,0.8-0.2,1.3h0c0.4-0.8,1-1.4,1.8-1.4
			c0.1,0,0.2,0,0.3,0l-0.2,1c-0.1,0-0.2,0-0.3,0c-0.9,0-1.7,1.1-2,2.5l-0.5,2.7H58.7z"/>
		<path class="st0" d="M65.4,10.5L65,12.1h1.4l-0.2,0.8h-1.4l-0.6,2.9c-0.1,0.3-0.1,0.6-0.1,1c0,0.4,0.2,0.6,0.6,0.6
			c0.2,0,0.4,0,0.5,0l0,0.8c-0.2,0.1-0.5,0.1-0.8,0.1c-0.9,0-1.3-0.6-1.3-1.2c0-0.4,0-0.7,0.1-1.1l0.6-3H63l0.2-0.8H64l0.3-1.4
			L65.4,10.5z"/>
	</g>
</g>
</svg>
